<?xml version="1.0" encoding="UTF-8"?>
<svg xmlns="http://www.w3.org/2000/svg" xmlns:xlink="http://www.w3.org/1999/xlink" width="20px" height="20px" viewBox="0 0 20 20" version="1.1">
<g id="surface1">
<path style=" stroke:none;fill-rule:nonzero;fill:rgb(100,92,187);fill-opacity:1;" d="M 19.753906 18.578125 L 14.78125 13.601562 C 17.597656 10.160156 17.21875 5.113281 13.917969 2.128906 C 10.621094 -0.851562 5.5625 -0.726562 2.417969 2.417969 C -0.726562 5.5625 -0.851562 10.621094 2.128906 13.917969 C 5.113281 17.21875 10.160156 17.597656 13.601562 14.78125 L 18.578125 19.753906 C 18.90625 20.070312 19.425781 20.066406 19.746094 19.746094 C 20.066406 19.425781 20.070312 18.90625 19.753906 18.578125 Z M 8.332031 15 C 4.652344 15 1.667969 12.015625 1.667969 8.332031 C 1.667969 4.652344 4.652344 1.667969 8.332031 1.667969 C 12.015625 1.667969 15 4.652344 15 8.332031 C 14.996094 12.011719 12.011719 14.996094 8.332031 15 Z M 8.332031 15 " fill="rgb(100,92,187)"/>
</g>
</svg>
